<?xml version="1.0" encoding="utf-8"?>
<!-- Generator: Adobe Illustrator 19.2.1, SVG Export Plug-In . SVG Version: 6.00 Build 0)  -->
<svg version="1.1" id="Calque_1" xmlns="http://www.w3.org/2000/svg" xmlns:xlink="http://www.w3.org/1999/xlink" x="0px" y="0px"
	 viewBox="0 0 590 168" style="enable-background:new 0 0 590 168;" xml:space="preserve">
<style type="text/css">
	.st0{fill:#4899D4;}
	.st1{fill:none;stroke:#4899D4;stroke-width:4;stroke-miterlimit:10;}
</style>
<g>
	<g>
		<path class="st0" d="M107.8,55.5v-5h14.4v71.2h-14.4v-8.9c-6.9,7.1-14.9,10.7-24,10.7c-10.9,0-20.1-3.8-27.8-11.5
			c-7.7-7.7-11.5-16.9-11.5-27.8c0-10.9,3.8-20.1,11.5-27.8s16.9-11.5,27.8-11.5C92.8,44.8,100.8,48.4,107.8,55.5z M107.8,89.4V78.9
			c-0.8-4.5-3-8.5-6.6-12.2c-4.8-4.8-10.6-7.2-17.4-7.2c-6.8,0-12.6,2.4-17.4,7.2C61.4,71.5,59,77.3,59,84.2
			c0,6.8,2.4,12.6,7.2,17.4c4.8,4.8,10.6,7.2,17.4,7.2c6.8,0,12.6-2.4,17.4-7.2C104.7,97.9,106.9,93.9,107.8,89.4z"/>
 		<path class="st0" d="M157.2,60.1c5.3-7.2,11.9-11,19.7-11.4v14.9c-5.2,0.3-9.4,2-12.4,5c-4.7,4.6-7.1,10.1-7.3,16.4v36.6h-14.3
			V50.5h14.3V60.1z"/>
		<path class="st0" d="M252.5,55.5v-5h14.4v71.2h-14.4v-8.9c-6.9,7.1-14.9,10.7-24,10.7c-10.9,0-20.1-3.8-27.8-11.5
			c-7.7-7.7-11.5-16.9-11.5-27.8c0-10.9,3.8-20.1,11.5-27.8s16.9-11.5,27.8-11.5C237.5,44.8,245.6,48.4,252.5,55.5z M252.5,89.4
			V78.9c-0.8-4.5-3-8.5-6.6-12.2c-4.8-4.8-10.6-7.2-17.4-7.2c-6.8,0-12.6,2.4-17.4,7.2c-4.8,4.8-7.2,10.6-7.2,17.4
			c0,6.8,2.4,12.6,7.2,17.4c4.8,4.8,10.6,7.2,17.4,7.2c6.8,0,12.6-2.4,17.4-7.2C249.4,97.9,251.6,93.9,252.5,89.4z"/>
		<path class="st0" d="M319,100.5v-50h14.3v48.9c0,2.5,0.9,4.6,2.6,6.3c1.7,1.7,3.7,2.5,6.1,2.5c5.7,0,8.5-3.5,8.5-10.6V50.5h14.4
			v49.8c-0.2,6.1-2.5,11.2-6.7,15.5c-4.5,4.5-9.9,6.8-16.2,6.8c-6.4,0-11.6-2.2-15.7-6.6c-4.2,4.4-9.4,6.6-15.8,6.6
			c-6.4,0-11.8-2.3-16.2-6.8c-4.2-4.2-6.5-9.4-6.6-15.5V50.5h14.3v47.1c0,7,2.9,10.6,8.6,10.6c2.3,0,4.4-0.8,6.1-2.5
			C318,104.3,318.8,102.6,319,100.5z"/>
		<path class="st0" d="M445.2,55.5v-5h14.4v71.2h-14.4v-8.9c-6.9,7.1-14.9,10.7-24,10.7c-10.9,0-20.1-3.8-27.8-11.5
			c-7.7-7.7-11.5-16.9-11.5-27.8c0-10.9,3.8-20.1,11.5-27.8s16.9-11.5,27.8-11.5C430.3,44.8,438.3,48.4,445.2,55.5z M445.2,89.4
			V78.9c-0.8-4.5-3-8.5-6.6-12.2c-4.8-4.8-10.6-7.2-17.4-7.2c-6.8,0-12.6,2.4-17.4,7.2c-4.8,4.8-7.2,10.6-7.2,17.4
			c0,6.8,2.4,12.6,7.2,17.4c4.8,4.8,10.6,7.2,17.4,7.2c6.8,0,12.6-2.4,17.4-7.2C442.2,97.9,444.4,93.9,445.2,89.4z"/>
	</g>
</g>
<circle class="st0" cx="503.2" cy="84.1" r="8"/>
<circle class="st0" cx="543.9" cy="59.1" r="8"/>
<circle class="st0" cx="543.9" cy="108.6" r="8"/>
<circle class="st1" cx="530.3" cy="84.1" r="28.1"/>
</svg>
